<!DOCTYPE svg PUBLIC "-//W3C//DTD SVG 20010904//EN" "http://www.w3.org/TR/2001/REC-SVG-20010904/DTD/svg10.dtd">
<svg version="1.0" xmlns="http://www.w3.org/2000/svg" width="1071px" height="643px" viewBox="0 0 10710 6430" preserveAspectRatio="xMidYMid meet">
<g id="layer101" fill="#41cd8c" stroke="none">
<path d="M757 6378 c-228 -17 -394 -128 -495 -330 -65 -132 -83 -211 -89 -379 -8 -212 10 -328 116 -760 126 -517 127 -522 122 -1129 -7 -786 -7 -1097 1 -1220 25 -392 112 -715 252 -934 50 -77 173 -205 251 -261 131 -93 314 -168 490 -200 332 -61 794 -2 1066 135 132 67 287 195 370 307 134 179 209 423 209 672 -2 453 -144 703 -550 966 -58 38 -150 95 -205 128 -202 121 -373 244 -478 346 -155 149 -268 343 -307 526 -40 194 -41 228 -25 1015 9 376 2 480 -40 647 -86 337 -322 499 -688 471z m1328 -3403 c217 -55 390 -215 466 -432 30 -85 36 -238 15 -337 -53 -238 -242 -430 -481 -491 -119 -30 -288 -16 -402 35 l-44 19 -29 -32 c-25 -28 -27 -34 -14 -48 8 -9 11 -19 7 -22 -3 -4 3 -7 14 -7 22 0 64 -39 45 -41 -7 -1 -16 -3 -22 -4 -5 -1 -13 -3 -16 -4 -4 0 -2 -7 3 -13 15 -19 22 -58 11 -58 -35 0 -65 48 -39 64 14 9 -12 56 -30 56 -24 0 -38 22 -36 55 2 24 8 31 27 33 28 4 43 25 45 60 1 19 -1 21 -10 9 -16 -23 -48 -2 -40 26 5 17 4 19 -4 7 -9 -12 -14 -13 -31 -2 -19 11 -20 11 -14 -12 4 -18 0 -28 -17 -40 -32 -22 -38 -20 -36 11 2 20 -3 28 -18 30 -52 9 -65 14 -65 28 0 20 36 19 44 -1 6 -15 8 -15 24 -2 9 9 23 17 31 20 10 3 5 11 -17 27 -32 22 -32 22 -32 2 0 -12 -4 -21 -10 -21 -5 0 -10 10 -10 23 0 14 -16 39 -40 62 -33 32 -44 38 -58 29 -9 -6 -19 -25 -23 -42 -4 -18 -12 -39 -19 -47 -14 -17 -40 -20 -40 -5 0 6 4 10 9 10 5 0 17 23 26 50 9 28 25 55 36 60 32 18 48 58 36 97 -10 31 -27 46 -27 23 0 -15 -32 -12 -54 5 -19 14 -18 15 5 24 15 5 31 5 42 -1 16 -8 18 -7 14 9 -3 10 -9 40 -13 67 -7 48 -6 49 17 43 100 -24 172 -16 223 24 15 12 28 20 30 18 24 -36 25 -62 5 -102 -36 -69 -57 -94 -101 -116 -60 -29 -17 -27 47 3 28 12 67 39 88 58 l37 35 45 -48 c56 -60 60 -49 5 14 -22 25 -47 61 -55 81 -17 40 -20 116 -5 116 5 0 33 -11 62 -25 29 -13 114 -48 188 -77 113 -44 136 -57 138 -75 2 -13 8 -23 13 -23 6 0 19 -19 29 -42 12 -27 20 -35 20 -23 0 11 -9 35 -20 53 -24 39 -25 43 -5 36 9 -4 27 -26 41 -51 29 -48 45 -53 20 -6 -21 43 -87 99 -132 113 -84 27 -210 99 -242 137 -18 21 -52 61 -76 90 -24 28 -49 68 -56 88 -17 52 -8 225 16 294 16 47 23 56 60 72 110 49 282 64 399 34z m-592 -271 c3 -38 15 -99 27 -135 49 -143 5 -218 -144 -249 -52 -11 -66 -10 -112 6 -44 15 -57 16 -80 6 -28 -13 -28 -9 -12 -117 2 -11 11 -23 21 -27 9 -4 17 -17 17 -28 0 -24 -8 -25 -30 -5 -17 15 -27 10 -68 -40 -20 -24 -45 -19 -36 8 10 34 24 47 47 44 28 -3 34 29 17 89 -15 52 -43 59 -80 19 -13 -14 -31 -25 -40 -25 -13 0 -16 -6 -13 -23 3 -17 -2 -28 -22 -41 -15 -10 -29 -16 -31 -13 -7 7 17 67 27 67 5 0 9 7 9 15 0 8 5 15 11 15 21 0 74 53 74 73 0 11 6 22 14 25 10 3 12 -1 8 -17 -7 -26 22 -29 58 -5 18 12 40 15 79 12 l53 -4 7 66 c10 112 60 233 137 329 49 63 54 59 62 -45z m-339 -268 c7 -30 -2 -56 -19 -56 -20 0 -28 36 -13 59 17 27 24 26 32 -3z m-102 -38 c6 -37 -2 -58 -23 -58 -13 0 -19 -6 -17 -16 2 -10 -3 -19 -9 -21 -15 -5 -18 23 -3 32 6 3 10 15 10 26 0 24 17 59 29 59 5 0 10 -10 13 -22z m-72 -60 c0 -22 -38 -24 -46 -3 -4 8 -3 27 1 42 l7 28 19 -25 c10 -14 19 -33 19 -42z m-39 -28 c23 -23 28 -35 23 -55 -7 -30 -41 -52 -56 -37 -13 13 -55 -27 -51 -48 5 -22 -8 -36 -39 -44 -35 -8 -35 3 -3 38 30 33 30 32 3 40 -23 6 -23 7 5 22 16 9 35 13 43 10 8 -3 14 -2 14 3 0 5 9 11 20 14 14 3 18 10 14 21 -6 15 -7 15 -18 0 -16 -21 -53 -11 -61 17 -9 28 -4 30 34 19 30 -8 33 -7 28 10 -7 28 10 25 44 -10z m159 -66 c0 -9 -5 -14 -12 -12 -18 6 -21 28 -4 28 9 0 16 -7 16 -16z m-36 -27 c8 -12 5 -21 -8 -36 -25 -28 -36 -26 -36 3 0 53 21 69 44 33z m-126 -45 c2 -15 -6 -25 -29 -37 l-32 -17 7 29 c14 54 48 70 54 25z m32 -42 c0 -17 -27 -36 -38 -25 -3 3 0 16 6 31 13 27 32 24 32 -6z m67 8 c22 -36 3 -60 -21 -27 -15 22 -13 39 4 39 5 0 12 -6 17 -12z m219 -55 c14 -19 19 -63 7 -63 -19 0 -40 33 -35 55 5 30 10 31 28 8z m-302 -19 c9 -3 13 -10 10 -15 -9 -16 6 -31 21 -19 18 15 40 4 54 -27 15 -32 11 -36 -23 -24 -23 9 -26 8 -26 -9 0 -11 -3 -20 -7 -20 -13 0 -43 33 -43 47 0 10 -6 12 -21 8 -18 -6 -20 -4 -14 17 7 21 24 48 30 48 2 0 10 -3 19 -6z m236 -91 c0 -26 -21 -30 -39 -9 -8 10 -8 21 -1 41 10 27 11 27 25 9 8 -10 15 -29 15 -41z m-310 22 c0 -8 -9 -19 -20 -25 -17 -9 -20 -8 -20 8 0 10 3 22 7 25 12 12 33 7 33 -8z m360 -21 c0 -8 -4 -14 -10 -14 -5 0 -10 9 -10 21 0 11 5 17 10 14 6 -3 10 -13 10 -21z m-310 2 c0 -8 -13 -24 -30 -36 -26 -18 -30 -19 -30 -5 0 28 20 55 40 55 11 0 20 -6 20 -14z m200 -41 c10 -12 10 -19 1 -28 -17 -17 -45 4 -49 37 -3 24 -1 26 16 17 10 -5 25 -17 32 -26z m-152 -33 c3 -34 -8 -41 -28 -17 -14 17 -4 58 13 52 7 -2 13 -18 15 -35z m200 14 c3 -12 -1 -17 -10 -14 -7 3 -15 13 -16 22 -3 12 1 17 10 14 7 -3 15 -13 16 -22z m182 10 c0 -22 -27 -38 -50 -31 -20 6 -21 8 -4 26 20 22 54 25 54 5z m-260 -38 c0 -5 3 -7 8 -5 17 10 45 -11 48 -36 3 -30 -18 -57 -45 -57 -10 0 -18 -8 -19 -17 -1 -10 -3 -33 -4 -52 -2 -22 -11 -39 -25 -48 -22 -14 -23 -14 -23 6 0 12 5 31 10 42 9 16 7 19 -10 19 -11 0 -20 3 -20 7 0 11 32 43 44 43 16 1 48 48 37 54 -5 3 -14 -1 -21 -9 -16 -19 -39 -19 -64 0 -24 18 -18 25 23 28 32 2 39 11 20 23 -8 4 -7 9 2 14 14 10 39 2 39 -12z m188 -5 c2 -8 -5 -13 -17 -13 -12 0 -21 6 -21 16 0 18 31 15 38 -3z m-24 -39 c7 -18 -3 -64 -14 -64 -12 0 -33 57 -25 69 9 16 32 13 39 -5z m-56 -23 c3 -22 -13 -51 -28 -51 -12 0 -18 47 -8 65 13 21 32 14 36 -14z m140 -25 c2 -10 -4 -27 -15 -38 -18 -20 -18 -20 -24 4 -7 27 7 61 24 55 7 -2 14 -11 15 -21z m-190 -45 c4 -22 -13 -51 -29 -51 -11 0 -12 63 -2 74 12 12 28 0 31 -23z m122 -2 c14 -26 11 -29 -17 -18 -25 9 -31 39 -8 39 8 0 19 -9 25 -21z m158 9 c-3 -7 -15 -15 -28 -16 -21 -3 -22 -2 -11 12 16 19 44 21 39 4z m-228 -27 c0 -10 -6 -24 -14 -30 -11 -10 -16 -8 -21 8 -3 12 -3 25 0 31 11 17 35 11 35 -9z m246 -35 c-4 -17 -8 -42 -9 -55 -1 -13 -12 -30 -24 -39 -21 -13 -23 -13 -23 6 0 12 8 25 17 31 14 7 15 13 6 34 -9 19 -8 29 3 46 21 29 37 16 30 -23z m218 13 c-21 -23 -60 -25 -68 -4 -7 19 26 34 61 27 23 -4 23 -5 7 -23z m-156 -32 c3 -38 -5 -46 -26 -25 -13 13 -16 51 -5 62 14 14 28 -2 31 -37z m-140 -30 c4 -41 -6 -47 -32 -18 -14 16 -15 23 -6 41 16 30 34 20 38 -23z m186 -13 c7 -17 -2 -64 -13 -64 -13 0 -32 42 -26 61 8 23 31 25 39 3z m-54 -46 c0 -30 -1 -31 -20 -13 -15 14 -17 22 -9 37 14 26 29 13 29 -24z"/>
<path d="M2070 2309 c-10 -22 -10 -33 -1 -42 8 -8 11 -5 11 14 0 19 2 21 10 9 13 -21 22 -7 14 24 -8 34 -19 33 -34 -5z"/>
<path d="M1790 2250 c12 -8 12 -10 1 -10 -8 0 -12 -2 -9 -5 3 -3 13 -2 22 1 14 5 15 9 4 15 -7 5 -17 9 -23 9 -5 0 -3 -5 5 -10z"/>
<path d="M1870 2240 c12 -8 12 -10 1 -10 -8 0 -12 -2 -9 -5 3 -3 13 -3 22 1 19 7 11 24 -12 24 -15 0 -15 -2 -2 -10z"/>
<path d="M2142 2238 c-7 -7 -12 -16 -12 -22 0 -6 5 -5 12 2 18 18 32 14 17 -5 -12 -14 -12 -16 0 -12 8 3 21 15 29 27 14 21 13 22 -10 22 -13 0 -29 -5 -36 -12z"/>
<path d="M1747 2213 c6 -16 5 -17 -13 -3 -18 14 -18 14 -5 -2 7 -10 17 -18 22 -18 12 0 11 27 -1 35 -6 4 -7 -1 -3 -12z"/>
<path d="M2249 2221 c11 -7 11 -9 0 -14 -10 -4 -9 -6 3 -6 23 -1 32 15 12 23 -23 9 -31 7 -15 -3z"/>
<path d="M1894 2193 c4 -8 2 -13 -6 -14 -7 0 -2 -5 11 -10 32 -13 36 -6 9 17 -12 10 -18 13 -14 7z"/>
<path d="M1363 2183 c-18 -7 -16 -23 3 -23 8 0 13 4 10 9 -4 5 0 12 6 14 7 3 9 5 3 5 -5 0 -16 -2 -22 -5z"/>
<path d="M1820 2179 c0 -5 -4 -7 -10 -4 -5 3 -10 4 -10 1 0 -3 9 -10 19 -15 16 -9 18 -8 14 9 -6 21 -13 27 -13 9z"/>
<path d="M2186 2159 c-14 -11 -26 -28 -26 -37 0 -13 3 -13 16 4 15 18 15 18 11 -4 -4 -18 -3 -21 8 -12 10 8 28 70 20 70 -1 0 -14 -9 -29 -21z"/>
<path d="M1730 2092 c0 -11 -10 -28 -22 -37 -22 -16 -22 -17 -2 -11 15 5 24 0 32 -16 9 -19 10 -14 5 27 -6 53 -13 73 -13 37z"/>
<path d="M1560 2083 c0 -11 7 -20 15 -20 12 0 12 3 3 16 -7 9 -14 18 -15 20 -2 2 -3 -5 -3 -16z"/>
<path d="M2014 2088 c-10 -16 2 -18 21 -5 16 12 16 14 1 14 -9 0 -19 -4 -22 -9z"/>
<path d="M2239 2089 c-10 -6 -8 -9 11 -9 l25 -1 -25 -14 c-34 -20 -2 -20 36 0 29 15 29 14 -19 29 -8 2 -20 0 -28 -5z"/>
<path d="M1357 2072 c-25 -28 -21 -44 24 -87 l41 -40 -31 49 c-36 57 -38 71 -13 85 9 6 12 11 6 11 -6 0 -18 -8 -27 -18z"/>
<path d="M1500 2020 c6 -11 13 -20 16 -20 3 0 2 5 -1 10 -3 6 0 10 7 10 9 0 9 3 -2 10 -24 15 -32 12 -20 -10z"/>
<path d="M1964 2031 c4 -5 0 -12 -6 -14 -7 -3 -2 -6 11 -6 20 -1 21 1 11 14 -14 16 -25 21 -16 6z"/>
<path d="M1877 2002 c1 -8 3 -16 3 -18 0 -2 5 -4 10 -4 6 0 10 7 10 16 0 8 -4 13 -9 10 -5 -4 -11 -3 -14 1 -2 5 -2 2 0 -5z"/>
<path d="M2233 2005 c0 -8 6 -15 13 -15 20 0 26 17 8 24 -21 8 -21 8 -21 -9z"/>
<path d="M1736 1964 c-4 -14 -5 -28 -3 -31 3 -2 8 8 11 23 4 14 5 28 3 31 -3 2 -8 -8 -11 -23z"/>
<path d="M1941 1974 c-1 -6 6 -17 14 -24 13 -10 15 -9 15 11 0 17 -3 20 -9 10 -7 -11 -9 -11 -14 0 -3 8 -6 9 -6 3z"/>
<path d="M2042 1940 l-2 -45 20 25 c11 14 19 34 19 45 0 18 -1 17 -13 -5 l-14 -24 -5 24 c-2 15 -5 7 -5 -20z"/>
<path d="M2200 1942 c0 -4 5 -13 12 -20 7 -7 8 -12 2 -12 -5 0 -16 6 -23 13 -10 10 -11 9 -6 -5 4 -10 20 -24 37 -32 28 -14 29 -14 23 2 -4 9 -8 23 -9 31 -3 15 -36 37 -36 23z"/>
<path d="M1650 1929 c0 -5 -5 -7 -11 -3 -7 4 -7 -2 1 -17 18 -34 19 -34 18 0 -1 28 -8 46 -8 20z"/>
<path d="M1600 1909 c0 -5 -4 -7 -10 -4 -6 3 -10 -4 -10 -17 1 -22 1 -22 15 -4 15 20 19 36 10 36 -3 0 -5 -5 -5 -11z"/>
<path d="M1890 1890 c-11 -7 -12 -12 -4 -20 8 -8 13 -6 17 9 3 12 4 21 4 21 -1 0 -9 -5 -17 -10z"/>
<path d="M1720 1871 c0 -20 2 -21 15 -11 8 7 15 18 14 24 0 6 -3 5 -6 -3 -5 -11 -7 -11 -14 0 -6 10 -9 7 -9 -10z"/>
<path d="M2125 1863 c4 -14 2 -23 -4 -23 -6 0 -11 8 -12 18 0 11 -2 12 -6 4 -7 -17 5 -62 16 -62 16 0 24 61 11 73 -10 9 -11 7 -5 -10z"/>
<path d="M1940 1843 c0 -15 29 -49 30 -35 0 7 -7 20 -15 28 -8 9 -15 11 -15 7z"/>
<path d="M1786 1827 c8 -22 34 -30 34 -10 0 9 -3 13 -7 10 -3 -4 -12 -2 -20 5 -11 8 -12 7 -7 -5z"/>
<path d="M1854 1751 c4 -5 0 -12 -6 -14 -7 -3 0 -6 16 -6 24 -1 27 1 16 14 -13 16 -35 21 -26 6z"/>
<path d="M3226 1678 c-57 -15 -128 -89 -157 -163 -20 -52 -23 -76 -22 -180 1 -132 18 -217 73 -348 131 -315 419 -553 614 -506 39 9 62 24 101 63 74 75 90 128 89 291 -1 111 -5 143 -28 220 -94 311 -327 578 -544 624 -61 13 -73 13 -126 -1z"/>
<path d="M558 1105 c-74 -41 -95 -160 -46 -265 63 -137 210 -216 307 -165 45 23 75 94 68 164 -16 181 -205 333 -329 266z"/>
<path d="M2534 1069 c-42 -12 -90 -68 -105 -121 -50 -187 116 -506 310 -596 78 -36 126 -39 180 -10 68 36 86 80 86 203 -1 90 -4 108 -34 177 -99 234 -296 390 -437 347z"/>
<path d="M1140 945 c-45 -21 -68 -42 -90 -85 -29 -56 -34 -119 -16 -190 52 -201 215 -345 370 -328 187 21 204 298 31 495 -80 91 -219 142 -295 108z"/>
<path d="M1869 885 c-164 -51 -203 -288 -78 -475 78 -117 193 -184 315 -185 192 -1 282 223 174 434 -55 110 -151 193 -259 225 -65 19 -91 19 -152 1z"/>
</g>
<g id="layer102" fill="#ffffff" stroke="none">
<path d="M3335 4973 c11 -65 39 -95 145 -156 56 -33 71 -57 50 -82 -19 -22 -83 -19 -115 6 l-27 22 -24 -29 c-13 -16 -23 -32 -24 -36 0 -3 23 -18 52 -32 100 -50 210 -27 237 50 23 68 9 86 -134 177 l-50 32 98 3 97 3 0 39 0 40 -156 0 -156 0 7 -37z"/>
<path d="M2110 4665 c-71 -20 -139 -65 -196 -128 -85 -95 -119 -193 -112 -328 4 -76 9 -97 41 -162 46 -94 130 -175 214 -208 45 -18 79 -23 153 -23 143 -1 236 39 308 133 37 50 40 44 -44 104 l-51 36 -24 -37 c-33 -50 -96 -83 -172 -89 -54 -4 -69 -1 -117 24 -97 51 -146 149 -138 278 12 183 154 297 312 251 53 -16 108 -57 132 -100 9 -18 14 -17 77 20 72 42 73 45 35 100 -69 102 -281 167 -418 129z"/>
<path d="M2930 4664 c-120 -32 -233 -133 -280 -252 -33 -83 -39 -227 -11 -304 66 -190 240 -311 425 -295 106 9 172 41 251 121 55 55 76 86 98 141 51 124 46 260 -14 377 -32 62 -117 147 -179 178 -99 49 -191 60 -290 34z m165 -145 c60 -15 126 -75 156 -141 36 -80 34 -193 -4 -270 -84 -170 -285 -198 -395 -54 -48 65 -65 124 -60 211 9 130 69 219 170 250 54 17 78 18 133 4z"/>
<path d="M3880 4664 c-120 -32 -233 -133 -280 -252 -33 -83 -39 -227 -11 -304 66 -190 240 -311 425 -295 106 9 172 41 251 121 55 55 76 86 98 141 51 124 46 260 -14 377 -32 62 -117 147 -179 178 -99 49 -191 60 -290 34z m165 -145 c60 -15 126 -75 156 -141 36 -80 34 -193 -4 -270 -84 -170 -285 -198 -395 -54 -48 65 -65 124 -60 211 9 130 69 219 170 250 54 17 78 18 133 4z"/>
<path d="M8950 4664 c-120 -32 -233 -133 -280 -252 -33 -83 -39 -227 -11 -304 66 -190 240 -311 425 -295 106 9 172 41 251 121 55 55 76 86 98 141 51 124 46 260 -14 377 -32 62 -117 147 -179 178 -99 49 -191 60 -290 34z m165 -145 c60 -15 126 -75 156 -141 36 -80 34 -193 -4 -270 -84 -170 -285 -198 -395 -54 -48 65 -65 124 -60 211 9 130 69 219 170 250 54 17 78 18 133 4z"/>
<path d="M4530 4245 l0 -425 201 0 c128 0 216 4 242 12 61 18 142 98 166 164 41 108 21 219 -55 303 -62 68 -103 83 -256 89 l-128 5 0 138 0 139 -85 0 -85 0 0 -425z m394 -19 c64 -27 88 -140 43 -207 -30 -45 -72 -57 -179 -51 l-88 5 0 133 0 134 95 0 c59 0 108 -5 129 -14z"/>
<path d="M5280 4245 l0 -425 290 0 290 0 0 75 0 75 -205 0 -205 0 0 100 0 100 180 0 181 0 -3 68 -3 67 -177 3 -178 2 0 105 0 105 210 0 210 0 0 75 0 75 -295 0 -295 0 0 -425z"/>
<path d="M6000 4245 l0 -425 218 0 c206 0 219 1 267 24 97 44 159 145 160 256 0 93 -24 149 -91 208 l-55 49 92 149 c50 82 93 152 96 157 2 4 -38 7 -90 7 l-95 0 -84 -137 -84 -138 -82 -3 -82 -3 0 141 0 140 -85 0 -85 0 0 -425z m409 -18 c66 -33 90 -143 45 -204 -36 -49 -76 -61 -186 -56 l-98 5 0 134 0 134 108 0 c65 0 116 -5 131 -13z"/>
<path d="M6721 4658 c0 -7 69 -197 152 -423 l152 -410 89 0 89 0 153 415 c85 228 154 419 154 423 0 4 -39 6 -87 5 l-86 -3 -35 -103 -34 -102 -156 2 -155 3 -35 103 -34 102 -84 0 c-61 0 -84 -3 -83 -12z m455 -475 c-29 -87 -55 -164 -57 -171 -3 -8 -29 57 -58 145 -30 87 -56 164 -59 171 -3 9 23 12 111 12 l116 0 -53 -157z"/>
<path d="M7810 4320 l0 -349 -137 -3 -138 -3 -3 -72 -3 -73 361 0 361 0 -3 73 -3 72 -132 3 -133 3 0 349 0 350 -85 0 -85 0 0 -350z"/>
<path d="M8350 4245 l0 -425 85 0 85 0 0 425 0 425 -85 0 -85 0 0 -425z"/>
<path d="M9600 4245 l0 -425 68 0 68 0 201 258 c111 141 209 266 217 277 14 18 15 -8 16 -257 l0 -278 85 0 85 0 0 425 0 425 -72 0 -73 0 -210 -265 -210 -265 -3 265 -2 265 -85 0 -85 0 0 -425z"/>
</g>


</svg>